# xmcd
#
# Track frame offsets: 
#        150
#        11427
#        24363
#        36490
#        49798
#        62434
#        75396
#        85787
#        100831
#        110312
#        120967
#        132587
#        142564
#        155791
#        168616
#        181624
#        191249
#        203374
#        213614
#        224309
#        234152
#        245370
#        256378
#        269839
#
# Disc length: 3764 seconds
#
# Revision: 3
# Processed by: cddbd v1.5.2PL0 Copyright (c) Steve Scherf et al.
# Submitted via: ExactAudioCopyFreeDBPlugin 1.0
#
DISCID=410eb218
DTITLE=VVAA - The complete Motown singles,  vol. 1: 1959-61 [CD5)
DYEAR=2004
DGENRE=R&B/Soul
TTITLE0=THE MARVELETTES - Please Mr. Postman
TTITLE1=THE MARVELETTES - So long baby
TTITLE2=THE CONTOURS - The stretch
TTITLE3=THE CONTOURS - Funny
TTITLE4=DEBBIE DEAN - Itsy bity pity love
TTITLE5=DEBBIE DEAN - But i'm afraid
TTITLE6=REV. COLUMBUS MANN - They shall be mine
TTITLE7=REV. COLUMBUS MANN - Jesus loves
TTITLE8=THE EQUADORS - Someone to call my own
TTITLE9=THE EQUADORS - You're my desire
TTITLE10=PETE HARTFIELD - Love me
TTITLE11=PETE HARTFIELD - Darling tonight
TTITLE12=THE MIRACLES - Everybody's gotta pay some dues
TTITLE13=THE MIRACLES - I can't believe
TTITLE14=JOEL SEBASTIAN - Angel in blue
TTITLE15=JOEL SEBASTIAN - Blue cinderella
TTITLE16=MARY WELLS - Strange love
TTITLE17=MARY WELLS - Come to me
TTITLE18=FREDDIE GORMAN - The day will come
TTITLE19=FREDDIE GORMAN - Just for you
TTITLE20=POPCORN AND THE MOHAWKS - Have I the right
TTITLE21=POPCORN AND THE MOHAWKS - Real good lovin'
TTITLE22=THE SATINTONES - Zing went the strings of my heart
TTITLE23=THE SATINTONES - Faded letter
EXTD=
EXTT0=
EXTT1=
EXTT2=
EXTT3=
EXTT4=
EXTT5=
EXTT6=
EXTT7=
EXTT8=
EXTT9=
EXTT10=
EXTT11=
EXTT12=
EXTT13=
EXTT14=
EXTT15=
EXTT16=
EXTT17=
EXTT18=
EXTT19=
EXTT20=
EXTT21=
EXTT22=
EXTT23=
PLAYORDER=
